<?xml version="1.0" encoding="UTF-8" standalone="no"?>
<!-- Created with Inkscape (http://www.inkscape.org/) -->

<svg
   xmlns:dc="http://purl.org/dc/elements/1.1/"
   xmlns:cc="http://creativecommons.org/ns#"
   xmlns:rdf="http://www.w3.org/1999/02/22-rdf-syntax-ns#"
   xmlns:svg="http://www.w3.org/2000/svg"
   xmlns="http://www.w3.org/2000/svg"
   xmlns:sodipodi="http://sodipodi.sourceforge.net/DTD/sodipodi-0.dtd"
   xmlns:inkscape="http://www.inkscape.org/namespaces/inkscape"
   width="70mm"
   height="121mm"
   viewBox="0 0 70 121"
   version="1.1"
   id="svg821"
   inkscape:version="0.92.4 (5da689c313, 2019-01-14)"
   sodipodi:docname="tarot.svg"
   inkscape:export-filename="C:\dev\tarot_generator\source\d2.png"
   inkscape:export-xdpi="96"
   inkscape:export-ydpi="96">
  <defs
     id="defs815">
    <marker
       inkscape:stockid="DotM"
       orient="auto"
       refY="0.0"
       refX="0.0"
       id="DotM"
       style="overflow:visible"
       inkscape:isstock="true">
      <path
         id="path929"
         d="M -2.5,-1.0 C -2.5,1.7600000 -4.7400000,4.0 -7.5,4.0 C -10.260000,4.0 -12.5,1.7600000 -12.5,-1.0 C -12.5,-3.7600000 -10.260000,-6.0 -7.5,-6.0 C -4.7400000,-6.0 -2.5,-3.7600000 -2.5,-1.0 z "
         style="fill-rule:evenodd;stroke:#000000;stroke-width:1pt;stroke-opacity:1;fill:#5f5f5f;fill-opacity:1"
         transform="scale(0.4) translate(7.4, 1)" />
    </marker>
    <marker
       inkscape:stockid="DotL"
       orient="auto"
       refY="0.0"
       refX="0.0"
       id="DotL"
       style="overflow:visible"
       inkscape:isstock="true">
      <path
         id="path926"
         d="M -2.5,-1.0 C -2.5,1.7600000 -4.7400000,4.0 -7.5,4.0 C -10.260000,4.0 -12.5,1.7600000 -12.5,-1.0 C -12.5,-3.7600000 -10.260000,-6.0 -7.5,-6.0 C -4.7400000,-6.0 -2.5,-3.7600000 -2.5,-1.0 z "
         style="fill-rule:evenodd;stroke:#000000;stroke-width:1pt;stroke-opacity:1;fill:#b9b9b9;fill-opacity:1"
         transform="scale(0.8) translate(7.4, 1)" />
    </marker>
    <marker
       inkscape:stockid="Arrow1Lstart"
       orient="auto"
       refY="0.0"
       refX="0.0"
       id="Arrow1Lstart"
       style="overflow:visible"
       inkscape:isstock="true">
      <path
         id="path865"
         d="M 0.0,0.0 L 5.0,-5.0 L -12.5,0.0 L 5.0,5.0 L 0.0,0.0 z "
         style="fill-rule:evenodd;stroke:#000000;stroke-width:1pt;stroke-opacity:1;fill:#000000;fill-opacity:1"
         transform="scale(0.8) translate(12.5,0)" />
    </marker>
  </defs>
  <sodipodi:namedview
     id="base"
     pagecolor="#ffffff"
     bordercolor="#666666"
     borderopacity="1.0"
     inkscape:pageopacity="0.0"
     inkscape:pageshadow="2"
     inkscape:zoom="1.4"
     inkscape:cx="25.812587"
     inkscape:cy="232.44151"
     inkscape:document-units="mm"
     inkscape:current-layer="layer7"
     showgrid="false"
     inkscape:window-width="1920"
     inkscape:window-height="1018"
     inkscape:window-x="-8"
     inkscape:window-y="-8"
     inkscape:window-maximized="1" />
  <metadata
     id="metadata818">
    <rdf:RDF>
      <cc:Work
         rdf:about="">
        <dc:format>image/svg+xml</dc:format>
        <dc:type
           rdf:resource="http://purl.org/dc/dcmitype/StillImage" />
        <dc:title></dc:title>
      </cc:Work>
    </rdf:RDF>
  </metadata>
  <g
     inkscape:groupmode="layer"
     id="layer4"
     inkscape:label="back-border"
     style="display:inline">
    <rect
       style="opacity:1;fill:none;fill-opacity:0.7035176;stroke:#000000;stroke-width:0.991;stroke-linecap:round;stroke-linejoin:round;stroke-miterlimit:4;stroke-dasharray:none;stroke-opacity:1"
       id="rect829"
       width="69.03717"
       height="120.11121"
       x="0.51508367"
       y="0.46820873"
       ry="0" />
  </g>
  <g
     inkscape:groupmode="layer"
     id="layer6"
     inkscape:label="template"
     style="display:inline">
    <g
       inkscape:groupmode="layer"
       id="layer7"
       inkscape:label="a"
       style="display:none">
      <path
         style="fill:#002eff;fill-opacity:0.1205357;stroke:#1400ff;stroke-width:1;stroke-linecap:butt;stroke-linejoin:miter;stroke-miterlimit:4;stroke-dasharray:none;stroke-opacity:1"
         d="M 0.51508366,0.46820872 H 69.552253 L 69.358631,28.77381 43.656249,45.971727 0.37797618,16.300595 Z"
         id="path839"
         inkscape:connector-curvature="0"
         inkscape:export-xdpi="96"
         inkscape:export-ydpi="96" />
    </g>
    <g
       inkscape:groupmode="layer"
       id="layer8"
       inkscape:label="b"
       style="display:none">
      <path
         style="fill:#1dff00;fill-opacity:0.1205357;stroke:#00ff02;stroke-width:1;stroke-linecap:butt;stroke-linejoin:miter;stroke-miterlimit:4;stroke-dasharray:none;stroke-opacity:1"
         d="M 0.37797618,16.300595 47.058034,48.61756 0.56696427,86.037202 Z"
         id="path837"
         inkscape:connector-curvature="0" />
    </g>
    <g
       inkscape:groupmode="layer"
       id="layer9"
       inkscape:label="c"
       style="display:none">
      <path
         style="fill:#ff0021;fill-opacity:0.1205357;stroke:#ff0014;stroke-width:1;stroke-linecap:butt;stroke-linejoin:miter;stroke-miterlimit:4;stroke-dasharray:none;stroke-opacity:1"
         d="M 69.358631,28.77381 16.81994,64.114581 45.735118,97.565476 h 23.812499 z"
         id="path835"
         inkscape:connector-curvature="0" />
    </g>
    <g
       inkscape:groupmode="layer"
       id="layer10"
       inkscape:label="d"
       style="display:none">
      <path
         style="fill:#ff00f0;fill-opacity:0.1205357;stroke:#ff00e7;stroke-width:1;stroke-linecap:butt;stroke-linejoin:miter;stroke-miterlimit:4;stroke-dasharray:none;stroke-opacity:1"
         d="m 69.552253,120.57942 -0.0046,-23.013944 h -23.8125 L 21.166666,69.028272 0.56696427,86.037202 0.51508366,120.57942 Z"
         id="path841"
         inkscape:connector-curvature="0" />
    </g>
  </g>
  <g
     style="display:inline"
     inkscape:label="set one"
     id="g859"
     inkscape:groupmode="layer">
    <g
       style="display:none"
       inkscape:label="a"
       id="g845"
       inkscape:groupmode="layer">
      <path
         sodipodi:type="spiral"
         style="fill:none;fill-rule:evenodd;stroke:#000000;stroke-width:0.26458332"
         id="path1238"
         sodipodi:cx="7.9375"
         sodipodi:cy="5.1502976"
         sodipodi:expansion="1"
         sodipodi:revolution="3"
         sodipodi:radius="20.878693"
         sodipodi:argument="-17.7586"
         sodipodi:t0="0"
         d="M 7.9375,5.1502976 C 8.4207537,6.0789026 6.9241794,6.259855 6.3940975,5.9534972 4.9576082,5.1232864 5.3333931,3.0664252 6.331101,2.0634925 8.1157663,0.26948135 11.073454,0.92632568 12.567708,2.7406991 14.760585,5.4033651 13.792047,9.3665532 11.150298,11.323908 7.6292619,13.932754 2.6305257,12.64049 0.22048727,9.1662952 -2.8123001,4.7943753 -1.1910634,-1.2524581 3.1183029,-4.1101176 8.337523,-7.5711262 15.438908,-5.6182339 18.741318,-0.47209893 22.633093,5.5924431 20.347006,13.752151 14.363096,17.497518 7.4544358,21.821692 -1.7659961,19.201448 -5.9531229,12.379093 -10.710803,4.6271001 -7.7557636,-5.6556803 -0.0944951,-10.283728 c 8.5947854,-5.19197 19.9410671,-1.901691 25.0094231,6.598831 5.626836,9.4371901 2.000994,21.84782 -7.339034,27.356025" />
      <path
         sodipodi:type="spiral"
         style="fill:none;fill-rule:evenodd;stroke:#000000;stroke-width:0.26458332"
         id="path1240"
         sodipodi:cx="30.994047"
         sodipodi:cy="21.970238"
         sodipodi:expansion="1"
         sodipodi:revolution="3"
         sodipodi:radius="20.076372"
         sodipodi:argument="-18.271997"
         sodipodi:t0="0"
         d="m 30.994047,21.970238 c 0.843326,0.549582 -0.324758,1.40793 -0.913441,1.401662 -1.595295,-0.01699 -2.25192,-1.917298 -1.889883,-3.228545 0.647598,-2.345514 3.435184,-3.192152 5.543649,-2.378104 3.094256,1.194647 4.154681,4.97165 2.866324,7.858753 -1.717176,3.848054 -6.514447,5.126378 -10.173857,3.354545 -4.604994,-2.22967 -6.102748,-8.060197 -3.842766,-12.488961 2.737141,-5.363826 9.607598,-7.0818115 14.804065,-4.330987 6.123857,3.241753 8.062565,11.156026 4.819208,17.119169 -3.744585,6.884685 -12.705139,9.044446 -19.434273,5.307429 C 15.127003,30.338962 12.745958,20.330465 16.977424,12.835822 21.724489,4.4279652 32.782105,1.8254648 41.041904,6.5519522 50.211848,11.799249 53.035933,23.906846 47.813995,32.931537" />
      <path
         sodipodi:type="spiral"
         style="fill:none;fill-rule:evenodd;stroke:#000000;stroke-width:0.26458332"
         id="path1242"
         sodipodi:cx="56.507439"
         sodipodi:cy="33.498512"
         sodipodi:expansion="1"
         sodipodi:revolution="3"
         sodipodi:radius="9.5621252"
         sodipodi:argument="-18.527805"
         sodipodi:t0="0"
         d="m 56.507439,33.498512 c 0.454827,0.151609 0.02003,0.687897 -0.251984,0.755953 -0.737141,0.184428 -1.26872,-0.612083 -1.259921,-1.259921 0.01574,-1.158831 1.198197,-1.884894 2.267857,-1.763889 1.56977,0.17758 2.513582,1.790185 2.267857,3.275794 -0.327513,1.980083 -2.383985,3.147257 -4.28373,2.771825 -2.390635,-0.472442 -3.783441,-2.978584 -3.275794,-5.291667 0.61483,-2.801453 3.573618,-4.421065 6.299604,-3.779761 3.212479,0.755754 5.059592,4.168921 4.28373,7.307539 -0.895764,3.623659 -4.764406,5.698721 -8.315477,4.787699 -4.034952,-1.035163 -6.338271,-5.360017 -5.291666,-9.323413 1.174133,-4.446332 5.955721,-6.978128 10.331349,-5.795635 4.857778,1.312792 7.618215,6.551496 6.299603,11.339286" />
      <path
         sodipodi:type="spiral"
         style="fill:none;fill-rule:evenodd;stroke:#000000;stroke-width:0.26458332"
         id="path1244"
         sodipodi:cx="55.184521"
         sodipodi:cy="9.3080359"
         sodipodi:expansion="1"
         sodipodi:revolution="3"
         sodipodi:radius="10.745764"
         sodipodi:argument="-18.433117"
         sodipodi:t0="0"
         d="m 55.184521,9.3080359 c 0.492729,0.2179381 -0.05068,0.7717121 -0.362228,0.8189481 -0.844271,0.128007 -1.354346,-0.819569 -1.275669,-1.5434031 0.140735,-1.2947695 1.540753,-1.9814162 2.724579,-1.7323898 1.737312,0.3654562 2.621862,2.2698381 2.189111,3.9057549 -0.57679,2.180419 -3.001481,3.267694 -5.086931,2.645831 -2.624325,-0.782551 -3.916249,-3.7342824 -3.102552,-6.2681061 0.985496,-3.0688001 4.467725,-4.5663687 7.449282,-3.5592728 3.513662,1.1868276 5.217469,5.2015646 4.015994,8.6304579 -1.387151,3.958793 -5.93567,5.869224 -9.811634,4.472714 -4.404116,-1.586803 -6.521436,-6.669962 -4.929435,-10.9928091 1.785986,-4.84958133 7.404391,-7.1739827 12.173985,-5.3861558 5.295154,1.9848267 7.826779,8.1389232 5.842877,13.3551609" />
      <path
         sodipodi:type="spiral"
         style="fill:none;fill-rule:evenodd;stroke:#000000;stroke-width:0.26458332"
         id="path1246"
         sodipodi:cx="57.452377"
         sodipodi:cy="21.78125"
         sodipodi:expansion="1"
         sodipodi:revolution="3"
         sodipodi:radius="17.251829"
         sodipodi:argument="-18.420208"
         sodipodi:t0="0"
         d="m 57.452377,21.78125 c 0.786472,0.360072 -0.09735,1.237795 -0.598463,1.307167 -1.357979,0.187996 -2.157174,-1.343738 -2.015871,-2.504093 0.252757,-2.075603 2.514465,-3.148877 4.409724,-2.724576 2.781368,0.622679 4.161887,3.698153 3.43328,6.315354 -0.971119,3.488319 -4.886058,5.183492 -8.220985,4.141985 -4.196665,-1.310632 -6.209444,-6.07588 -4.850689,-10.126616 1.645635,-4.905983 7.266763,-7.237894 12.032246,-5.559392 5.615957,1.978056 8.267911,8.458304 6.268097,13.937876 -2.308864,6.326382 -9.650285,9.298972 -15.843507,6.976801 C 45.029078,30.907158 41.735444,22.70318 44.380704,15.796619 47.348286,8.048501 56.415797,4.4335291 64.035471,7.4024094 72.494754,10.698429 76.431285,20.630191 73.138385,28.962807" />
      <path
         sodipodi:type="spiral"
         style="fill:none;fill-rule:evenodd;stroke:#000000;stroke-width:0.26458332"
         id="path1248"
         sodipodi:cx="32.316963"
         sodipodi:cy="-1.2752976"
         sodipodi:expansion="1"
         sodipodi:revolution="3"
         sodipodi:radius="18.786024"
         sodipodi:argument="-18.214104"
         sodipodi:t0="0"
         d="m 32.316963,-1.2752976 c 0.758046,0.55905753 -0.379605,1.29764928 -0.92919,1.25992124 -1.489341,-0.10224065 -1.999847,-1.91298864 -1.590652,-3.11830214 0.731952,-2.1560233 3.381844,-2.7959915 5.307414,-1.921383 2.82585,1.2835232 3.61196,4.86926356 2.252113,7.4965257 -1.812462,3.5017271 -6.363093,4.4361498 -9.685637,2.5828446 -4.181083,-2.3321955 -5.264545,-7.8599349 -2.913576,-11.8747491 2.84734,-4.8624777 9.358465,-6.0953677 14.063861,-3.2443067 5.545147,3.3598778 6.927713,10.85804453 3.575037,16.252973 -3.870796,6.228658 -12.358325,7.761074 -18.442084,3.905768 -6.912753,-4.3806435 -8.595145,-13.8591002 -4.236499,-20.631196 4.889743,-7.597268 15.360235,-9.429733 22.820308,-4.56723 8.282095,5.3983009 10.264708,16.8616406 4.897961,25.0094198" />
      <path
         sodipodi:type="spiral"
         style="fill:none;fill-rule:evenodd;stroke:#000000;stroke-width:0.26458332"
         id="path1250"
         sodipodi:cx="38.931545"
         sodipodi:cy="35.199406"
         sodipodi:expansion="1"
         sodipodi:revolution="3"
         sodipodi:radius="19.60017"
         sodipodi:argument="-17.968559"
         sodipodi:t0="0"
         d="m 38.931545,35.199406 c 0.625387,0.758045 -0.713286,1.217001 -1.259921,1.039434 -1.481347,-0.481198 -1.53876,-2.443227 -0.818947,-3.559276 1.287577,-1.996351 4.13169,-1.971963 5.858631,-0.59846 2.534357,2.01567 2.420521,5.843967 0.377973,8.157986 -2.722394,3.084223 -7.564817,2.875772 -10.457341,0.157486 -3.639946,-3.420685 -3.334516,-9.289783 0.063,-12.756696 4.114848,-4.198898 11.017071,-3.795289 15.056051,0.283487 4.759799,4.806697 4.257335,12.74581 -0.503974,17.355407 -5.497121,5.321962 -14.475516,4.720232 -19.654762,-0.724462 -5.884988,-6.186607 -5.183723,-16.2059 0.944949,-21.954116 6.875443,-6.44863 17.93678,-5.647646 24.253471,1.165435 7.012725,7.563811 6.111891,19.668034 -1.385922,26.552827" />
    </g>
    <g
       style="display:none"
       inkscape:label="b"
       id="g849"
       inkscape:groupmode="layer">
      <path
         style="fill:#cecece;fill-opacity:1;stroke:#000000;stroke-width:1;stroke-linecap:butt;stroke-linejoin:miter;stroke-miterlimit:4;stroke-dasharray:none;stroke-opacity:1"
         d="M -6.6145832,83.013393 C 2.6857601,80.994436 0.51740623,70.169996 21.544642,77.154762 34.998322,73.084492 19.35203,64.605135 17.764881,58.255952 35.148576,62.423142 46.303371,34.425631 43.46726,57.311011 30.778632,42.405786 16.747515,26.616097 45.735118,39.168154 28.260766,44.223769 1.3886279,58.903624 23.623512,23.293154 17.244718,22.74791 9.6111275,19.614648 10.961309,35.010415 10.257271,28.894744 3.6076375,42.597721 9.6383926,14.032738 5.5737052,15.275679 9.6954226,1.1691107 -5.1026784,22.537202 Z"
         id="path861"
         inkscape:connector-curvature="0"
         sodipodi:nodetypes="cccccccccc" />
    </g>
    <g
       style="display:none"
       inkscape:label="c"
       id="g853"
       inkscape:groupmode="layer">
      <path
         style="fill:#b9b9b9;fill-opacity:1;stroke:#000000;stroke-width:1;stroke-linecap:butt;stroke-linejoin:miter;stroke-miterlimit:4;stroke-dasharray:2.00000006, 1.00000003;stroke-dashoffset:0;stroke-opacity:1;marker-mid:url(#DotL)"
         d="M 75.21726,36.900297 C 49.51571,65.528434 72.540099,17.345495 40.821427,15.922619 62.950913,27.560654 49.942282,41.490306 51.40476,54.476189 52.876553,51.733302 29.056633,47.969722 33.450892,31.041665 34.914821,25.402153 45.553214,43.229253 39.49851,59.578869 36.182326,52.14929 33.971907,44.22826 21.922619,40.68006 c 30.282488,36.36509 -1.607223,25.599641 -2.456845,38.364583 0,0 19.435824,-5.675736 19.276785,-7.748513 C 37.804802,59.074208 26.327141,85.690158 27.403274,102.10119 45.469395,62.003213 57.776955,92.084026 54.239583,89.438987 36.101424,75.876337 46.835555,100.15462 50.648809,103.80208 55.226314,97.171381 58.159285,81.61321 65.956843,92.462796 l 7.559524,14.363094 z"
         id="path863"
         inkscape:connector-curvature="0"
         sodipodi:nodetypes="cccscccscscccc" />
    </g>
    <g
       style="display:inline"
       inkscape:label="d"
       id="g857"
       inkscape:groupmode="layer">
      <path
         style="fill:#5f5f5f;fill-opacity:1;stroke:#000000;stroke-width:1;stroke-linecap:round;stroke-linejoin:round;stroke-miterlimit:4;stroke-dasharray:none;stroke-opacity:1;marker-mid:url(#DotM)"
         d="m 74.650297,107.01488 c -1.697161,-1.51478 -4.074082,-2.66067 -5.858631,-3.2128 -0.549421,-1.16701 -2.541641,-1.46481 -2.228995,-1.11452 -3.585682,-1.77174 -5.824053,-5.288137 -9.174912,-7.327784 -2.460811,-1.283093 -3.363518,-1.63736 -5.073807,-3.308491 -2.206884,-1.194846 -4.523244,-3.166143 -6.389845,-3.935215 2.401429,1.281334 6.571048,2.291569 6.756861,4.802443 -0.162969,3.259199 2.133975,5.813555 2.887161,8.802087 0.697517,1.77757 0.240178,3.78407 0.372346,5.67225 -0.118727,3.28094 -0.314347,1.09246 -1.511903,-0.37797 -2.177685,-2.84945 -5.277385,-5.04642 -8.504465,-6.61458 -2.647913,-1.537223 -5.360862,-3.71801 -6.035945,-6.806003 -0.604553,-2.568846 -1.582202,-4.896735 -1.33459,-7.564236 -0.142095,-1.951491 0.680344,-3.345752 0.566962,-5.349903 0.231556,-2.696289 0.201365,0.715816 0.18899,1.693381 -0.169567,1.301282 0.375423,3.121338 -0.352357,4.047199 -0.56799,2.920399 -3.1559,5.115098 -5.695262,6.420034 -2.161494,1.558026 -4.784605,-2.429571 -6.329849,-3.969807 -2.100049,-2.888416 -3.132167,-6.453077 -4.820449,-9.637336 -0.808667,-2.58062 -2.247598,-4.639279 -3.02381,-5.669642 -2.086188,-2.405725 -4.847364,-4.333856 -6.803571,-6.992559 -1.608426,-2.249369 -1.740202,-1.405152 -1.680849,0.757377 -1.2500528,3.825038 2.342377,6.683121 2.814778,10.203932 -0.63765,0.895592 2.740351,3.979334 3.401785,6.047618 2.492872,4.347914 -4.052396,0.764237 -6.270418,1.052807 -2.5768279,-0.813465 -4.7775288,-2.056533 -7.5692962,-1.808758 -3.75228018,0.238459 -7.3532915,-1.276028 -11.1067139,-1.133928 -3.0944319,1.531071 0.9893751,4.941509 2.7661716,6.156532 0.9238241,0.741359 3.9512208,3.309568 6.4942451,4.048823 2.7539581,0.210261 5.056731,1.552714 7.1815474,2.078871 -0.2386531,1.569934 0.6159758,3.581026 -0.7559522,4.724701 -2.3156114,0.759533 -4.8912452,0.197618 -7.32370143,0.39202 -2.95013447,-0.310336 -6.25998077,-0.589893 -8.77837417,1.190267 -0.9180856,1.57427 -2.1970922,4.51284 0.6006251,5.04245 2.5543559,0.87377 4.3056365,1.51684 6.99698623,1.69074 2.07933517,0.66009 4.68831227,1.10857 6.80357127,2.83482 2.1407044,0.28723 1.7495638,4.63204 0.047247,5.50428 -1.8390709,1.46579 -4.3604368,1.32159 -6.66183028,1.29929 -2.03281102,1.03361 -6.27929322,0.51609 -5.85863092,3.48895 0.5283302,2.34296 4.0102871,3.45723 6.23660712,4.44855 2.40178658,-0.0787 5.00038268,0.44536 6.99209928,-1.22819 2.2863063,-0.69297 3.0965522,-2.89856 2.8352816,-5.11738 0.042279,-2.0097 0.6216124,-3.87983 0.5532314,-5.84473 0.05693,-2.3732 0.894067,-5.30113 -0.9312077,-7.08648 -0.8193111,-1.16941 -0.513309,-2.55601 -0.5771534,-4.06039 0.6923825,-2.22883 3.6689051,-2.983194 5.3018561,-3.877113 1.649503,1.458877 3.136302,3.132023 4.535714,4.157743 1.505971,0.26326 2.582575,3.2732 2.456845,5.88042 4.03e-4,5.78831 -5.5e-4,11.57725 0,17.36511 0.219591,2.28966 2.991351,2.58695 5.094698,2.66102 2.403083,-0.4595 2.973779,-2.07376 3.97673,-3.22798 1.463006,-1.57228 2.976821,-3.8921 3.19338,-6.5217 0.381366,-3.51079 0.202506,-7.14986 0.115819,-10.69676 -0.82937,-2.58006 -2.783946,-4.67932 -4.25414,-6.21607 0.718206,-0.908905 4.466889,-3.474119 6.425597,-1.889877 2.049258,1.348717 4.554877,1.978007 4.724701,4.724697 0.323949,2.83213 1.158836,5.53237 2.456847,7.74851 0.997035,3.04935 3.498977,5.25441 6.425594,6.61459 3.102179,0.88141 6.704409,2.34823 10.023828,1.25608 2.112008,0.10927 3.792715,-2.86314 3.96129,-4.94135 1.183206,-2.5626 -0.470336,-5.15912 -1.322916,-7.46503 -1.737643,-2.50745 3.099154,1.39504 3.968749,1.32292 1.828176,1.07096 4.179591,1.97886 4.724705,3.96875 1.632113,1.06035 1.868819,3.41558 3.097726,0.51455 0.363206,-1.80885 0.503159,-4.00189 1.248999,-5.61723 z"
         id="path1173"
         inkscape:connector-curvature="0" />
    </g>
  </g>
</svg>
